<svg id="Final" xmlns="http://www.w3.org/2000/svg" xmlns:xlink="http://www.w3.org/1999/xlink" viewBox="0 0 1003.27 719.21"><defs><style>.cls-1{fill:#fff;}.cls-2{fill:url(#linear-gradient);}.cls-3{fill:url(#linear-gradient-2);}.cls-4{fill:url(#linear-gradient-3);}</style><linearGradient id="linear-gradient" x1="794.23" y1="1247.91" x2="1456.15" y2="1310.31" gradientUnits="userSpaceOnUse"><stop offset="0" stop-color="#f0f"/><stop offset="0.5" stop-color="#9f3fff"/><stop offset="1" stop-color="#7526ff"/></linearGradient><linearGradient id="linear-gradient-2" x1="705.77" y1="1187.29" x2="1541.82" y2="1266.1" xlink:href="#linear-gradient"/><linearGradient id="linear-gradient-3" x1="789.44" y1="1237.34" x2="1433.7" y2="1298.07" xlink:href="#linear-gradient"/></defs><title>logo</title><path class="cls-1" d="M1364.74,742.92q-27.87-6.46-68-6.47T1209.34,741q-47.28,4.56-90,9.71a2.68,2.68,0,0,0-1.95.65,2.59,2.59,0,0,1-1.94.65q-9.06,1.31-16.83,1.94a67.45,67.45,0,0,0-15.55,3.24q-27.18,2.61-47.91,4.53t-36.26,1.94q-3.87,36.27-15.54,95.83a1083,1083,0,0,1-28.49,119.14q-18.15,60.89-40.14,108.79Q872,1178,828.61,1227.9t-80.94,73.17a174.77,174.77,0,0,1-37.56,19.43h-1.29a1.15,1.15,0,0,1-1.3,1.29,32.81,32.81,0,0,1-9.7,3.24,46,46,0,0,0-8.42,1.94l-1.3,1.3q-13,2.58-23.31,3.88a151.53,151.53,0,0,1-18.12,1.3,81.41,81.41,0,0,1-15.55-1.3q-37.57-6.5-50.5-26.55a135.6,135.6,0,0,1-18.13-40.79,33.19,33.19,0,0,1-1.3-10.36v-3.88c0-2.59-.45-4.33-1.29-5.19v-22q2.57-40.12,19.42-90a966.78,966.78,0,0,1,40.79-101q24-51.15,51.81-99.07t51.15-86.12Q746.37,809,763.21,785t18.14-26.55q9-10.35,3.87-13a8.8,8.8,0,0,0-6.47-2.59,5.26,5.26,0,0,0-3.88,1.3q-49.23,19.42-80.29,47.27t-49.86,55q-18.79,27.19-26.55,48.57t-9.06,26.54c-1.74,6.93-1.3,11,1.29,12.31a15.26,15.26,0,0,0,6.48,1.94,16.87,16.87,0,0,1,12.94,0c1.72,1.74,2.59,3.46,2.59,5.18a3.74,3.74,0,0,1-1.29,2.59,50.34,50.34,0,0,1-11.65,18.13A73,73,0,0,1,602,974.08q-11,5.83-27.84,7.13-33.69,2.61-51.15-15.55t-20.08-45.32q-1.31-11.65.65-32.38t16.19-48.56q14.24-27.82,44.68-60.86t84.82-68Q690.68,684.66,727,673q31.06-10.35,61.5-6.47t46,40.14q2.58,9.08,5.17,20.72a209,209,0,0,1,1.3,25.25q0,14.91-5.18,35.62c-1.74,2.59-3.23,6.7-4.53,12.3a86.54,86.54,0,0,1-7.12,18.78q-2.61,6.49-6.48,15.54a145.32,145.32,0,0,1-10.35,19.42q-7.79,14.26-22,45.33t-31.07,69.93q-16.86,38.85-32.38,78.35t-25.9,69.28q-5.19,13-5.18,15.54c-1.74,5.18-3.88,12.75-6.48,22.66s-5,20.08-7.12,30.43a143.28,143.28,0,0,0-3.24,29.14c0,9.07,2.15,15.74,6.48,20.08,1.73,1.72,3,2.59,3.88,2.59a5.32,5.32,0,0,0,3.89,1.29,2.59,2.59,0,0,1,1.94.65c.43.42,1.51.65,3.24.65q18.12,0,41.44-15.55a162.38,162.38,0,0,0,27.84-19.42q13.61-11.65,26.55-24.6a136,136,0,0,0,11-12.31q4.51-5.82,9.71-12.3,23.31-33.66,49.22-82.88t51.79-123q19.42-54.37,27.2-104.24t10.35-84.83c-5.17,0-9.51-.85-12.94-2.59a10.24,10.24,0,0,0-3.89-1.29q-23.29-9-30.43-29.14t-3.24-39.5a70.53,70.53,0,0,1,17.49-34.31q13.59-14.88,34.31-14.9,22,0,33,11.66t13.61,24.6q2.56,6.49,3.87,25.9,7.77,1.31,41.45-5.18t77.7-14.89q44-8.42,90.65-16.83t81.59-11a376.77,376.77,0,0,1,65.39-2q30.4,1.95,51.8,9.72t33,22.66q11.67,14.91,9.07,39.5c-2.59,17.28-6.37,36-15.54,41.44Zm-415-40.14A88.57,88.57,0,0,0,951,688.53a24.4,24.4,0,0,0-1.94-9.71,7.1,7.1,0,0,0-7.11-4.53c-2.59,0-4.76,1.51-6.48,4.53a19.2,19.2,0,0,0-2.59,9.71,14.63,14.63,0,0,0,3.88,9.71C939.34,701.28,943.64,702.78,949.69,702.78Z" transform="translate(-502.39 -639.32)"/><path class="cls-1" d="M1155.76,1255.88a1.15,1.15,0,0,1,1.3,1.3,45.74,45.74,0,0,1-1.3,8.42q-1.3,5.82-7.77,9.71-60.88,25.89-98.42,21.37t-35-49.86q1.29-11.65,7.13-31.08a440.25,440.25,0,0,1,15.54-42.73q9.7-23.31,22-49.86t25.25-52.45a204.3,204.3,0,0,1-46.62-17.48q-20.73-11-20.72-33-1.31-23.31,10.36-40.79a90.15,90.15,0,0,1,31.08-28.49,141,141,0,0,1,44-15.54,152.55,152.55,0,0,1,50.5-.65q15.54-28.47,34.32-59.57t27.84-46.62a30.09,30.09,0,0,1,5.18-7.77,3.76,3.76,0,0,0,1.3-2.59q7.76-16.81,9.71-29.78a59.72,59.72,0,0,0-.65-23.31,303.39,303.39,0,0,0-99.07,69.28,224.49,224.49,0,0,0-30.43,40.15q-11.65,20.09-12.95,35.61-1.31,9.07-6.48,14.24c-5.17,2.59-9.51,3-13,1.3q-11.64-3.88-24-8.42A49.41,49.41,0,0,1,1024.32,903q-8.44-9.72-9.07-25.9t11-43.39a309.88,309.88,0,0,1,60.86-89.35q32.37-33.66,88.71-62.16t143.1-31.08q69.93-1.27,112,22t60.22,58.93q18.12,35.63,13.59,79.64t-29.13,84.17A341.56,341.56,0,0,1,1407,977.46q-35,32.38-89.35,60.87t-132.09,37.55c-1.75,3.46-2.59,6-2.59,7.77a19.44,19.44,0,0,0-3.24,7.77,20.34,20.34,0,0,1-3.24,7.77q-19.43,59.58-21.37,99.07T1155.76,1255.88ZM1104,1029.26q6.46-14.24,12.3-25.9t12.31-22q-20.74,1.3-31.09,10.36t-10.36,19.43Q1087.12,1024.09,1104,1029.26ZM1276.2,750.83a169.42,169.42,0,0,1,32.37,11q15.54,7.13,23.31,19.43t5.83,30.43q-1.95,18.15-20.07,42.73a40,40,0,0,0-6.48,8.42,39.81,39.81,0,0,1-6.47,8.42,10.1,10.1,0,0,0-2,2.59,6.92,6.92,0,0,1-3.24,2.59c-1.73,2.59-4.75,6.92-9.06,12.95s-9.07,12.52-14.24,19.42-10.59,14-16.19,21.37a181,181,0,0,0-13.6,20.08q-11.65,20.72-22,40.14T1206.26,1028a338.16,338.16,0,0,0,36.91-13,289.15,289.15,0,0,0,38.2-19.42q38.87-23.31,64.76-46.62t42.09-46q16.17-22.65,23.3-43.39a214.08,214.08,0,0,0,9.72-38.85,62.18,62.18,0,0,0-3.89-33q-6.49-16.17-23.31-27.19t-45.33-14.9q-28.49-3.89-69.92,3.89A3.7,3.7,0,0,0,1276.2,750.83Z" transform="translate(-502.39 -639.32)"/><path class="cls-2" d="M764,1353.54c-8.74,0-14-5.42-14-14.48,0-10.1,10.13-27.83,21.42-46.64l1.92-3.2c-5.33-4-10.17-9.68-10.17-18.34,0-17.36,26-24.86,41.47-29.34l2.64-.77,34.45-45.5c-27.07,1.9-50,8.93-64.43,13.32-7.86,2.4-12.61,3.86-15.72,3.86-6.8,0-9.21-4.12-9.21-7.64,0-5.42,5.21-14.55,19.22-33.65l1.21-1.66c5.62-7.8,14.37-10.3,22.09-12.5l.59-.17c21.72-6.24,46-9.4,72.18-9.4,61.17,0,88.45,18.1,88.45,58.7,0,26-13.8,49.74-38.85,66.8-24.32,16.56-57.64,25.68-93.8,25.68h0c-7.27,0-14.7-.37-22.11-1.1l-6.39,10.6a8.85,8.85,0,0,1,3,6.73c0,4.71-4.63,11.15-13.5,23.07l-.92,1.23C779.68,1344.49,773.15,1353.54,764,1353.54Zm66.38-95.69a77.11,77.11,0,0,0,13.15,1.11c1.77,0,3.6-.06,5.45-.17,33.7-1.9,59-19.45,70.53-33.9,6.37-8,8-14.24,7.51-17.37-1.53-8.47-32.5-14.29-55-15-.86,5.45-2.89,9.16-6.27,13.89l-21.27,29.37a50.78,50.78,0,0,1,5.58-.41c8.83,0,9.51,5.83,9.51,7.62,0,7.33-9.28,9.23-20,11.43a82.74,82.74,0,0,0-8.14,1.93Z" transform="translate(-502.39 -639.32)"/><path class="cls-1" d="M867.7,1152.43c65.29,0,83.45,21.06,83.45,53.7,0,50.46-55.21,87.48-127.66,87.48a223.37,223.37,0,0,1-24.75-1.4L788,1310.1c2.37.53,5,1.85,5,4.74,0,3.42-6.58,12.11-13.43,21.32-3.42,4.74-8.95,12.38-15.53,12.38-6.32,0-9-3.69-9-9.48,0-11.58,18.69-40.27,25-51.33-6.32-4-11.84-8.69-11.84-16.85,0-15.27,31-22.37,42.11-25.79l41.85-55.28c-46.06.79-82.65,17.64-90.55,17.64-1.58,0-4.21-.27-4.21-2.64,0-6.32,15.27-26.58,19.48-32.37,4.74-6.58,12.64-8.69,20-10.8,22.89-6.58,47.11-9.21,70.8-9.21M834,1241.67c5.8,0,12-1.31,16-1.31,2.75,0,4.51.6,4.51,2.62,0,5.27-22.37,6.58-26.58,9.48l-5.8,8.68a81.09,81.09,0,0,0,21.36,2.82c1.94,0,3.87-.07,5.76-.18,51.59-2.9,85.55-40.54,82.65-57.12-2.89-16.06-52.38-19.22-64.49-19.22-.26,7.11-1.84,10.53-5.79,16.06L834,1241.67m33.69-99.24c-26.64,0-51.4,3.23-73.56,9.6l-.57.16c-8.09,2.31-18.15,5.18-24.8,14.4l-1.17,1.61c-15.1,20.58-20.19,29.82-20.19,36.61,0,6.09,4.45,12.64,14.21,12.64,3.86,0,8.59-1.45,17.18-4.08,12.12-3.7,30.44-9.3,52.08-12l-26.55,35.07-1,.3c-6.75,2-17,4.9-25.62,9.29-12.91,6.54-19.46,14.9-19.46,24.86,0,8.94,4.27,15.22,8.68,19.43-12,20-21.85,37.44-21.85,48.75,0,11.83,7.44,19.48,19,19.48,11.68,0,19.42-10.68,23.6-16.47l.87-1.17c10-13.51,14.49-19.74,14.49-26.06a13.85,13.85,0,0,0-1.91-7.08l3-5c6.53.55,13.05.83,19.45.83,37.16,0,71.48-9.43,96.63-26.55,26.46-18,41-43.21,41-70.93,0-21.17-7-36.59-21.32-47.15-15.14-11.14-38.73-16.55-72.13-16.55Zm-13.45,88.34,15.5-21.41,0,0,0,0a39.36,39.36,0,0,0,6.11-11.56,209.74,209.74,0,0,1,22.82,2.62c18.29,3.26,22.7,7.5,23.39,8.3,0,1.52-1,6.19-6.53,13.11-9.54,12-29.3,26.3-55.75,30.77a12,12,0,0,0,4.71-9.57,12.33,12.33,0,0,0-10.29-12.21Z" transform="translate(-502.39 -639.32)"/><path class="cls-3" d="M1089.32,1244.82c-8.85,0-15.53-7-15.53-16.32,0-14,15.26-25.27,27.9-25.27,7.67,0,13.69,5.79,13.69,13.17C1115.38,1229.27,1103.75,1244.82,1089.32,1244.82Z" transform="translate(-502.39 -639.32)"/><path class="cls-1" d="M1101.69,1208.23c4.74,0,8.69,3.43,8.69,8.17,0,10.52-9.74,23.42-21.06,23.42-6.32,0-10.53-5-10.53-11.32,0-10.79,12.64-20.27,22.9-20.27m0-10c-7.41,0-15.32,3.07-21.72,8.42-7.1,5.95-11.18,13.92-11.18,21.85,0,12.16,8.83,21.32,20.53,21.32,8.15,0,16.31-4.12,22.4-11.3,5.5-6.49,8.66-14.55,8.66-22.12,0-10.19-8.21-18.17-18.69-18.17Z" transform="translate(-502.39 -639.32)"/><path class="cls-4" d="M1236.18,1348.8c-12.9,0-21.57-9.1-21.57-22.64a52.23,52.23,0,0,1,1.56-12,232.54,232.54,0,0,1-21.13,18.94c-10.58,8.09-19.42,12-27,12-11.62,0-19.74-9.2-19.74-22.37,0-6.53,2-13.08,5-19.4q-7.5,7.92-14.49,16.94l-.67.84c-7.21,9.19-15.61,19-24.08,19-4.1,0-11.68-1.62-16.23-12.48a44.69,44.69,0,0,1-2.54-8.81c-12.12,12.11-29.67,26-46.24,26-8.74,0-16.34-4.63-21.43-13a44.54,44.54,0,0,1-5.58-15.63c-12.4,11.51-31.24,26.82-43.79,26.82-14.34,0-22.9-12.84-22.9-25.26,0-14.75,8-26.68,16.56-37.21l-12.18,2.69c-6.43,9.55-13.74,16-20.81,22.24-3.38,3-6.87,6-10.31,9.5l-7.55,7.54-2.26-24.87,2.08-1.68A79.06,79.06,0,0,0,933.4,1283c-3.56-2.75-4.11-7.06-4.11-10.55,0-21.09,28.34-42.9,38.17-42.9a9.62,9.62,0,0,1,9.73,9.47c0,.46,0,.91-.05,1.35l7.22-1.07c10.23-1.53,17.61-2.63,22.59-2.63,3,0,6.8.35,9.09,3.1l.09.1c4.45,5.64,6.72,10.73,7.36,16.5l0,.28v.27c0,10.34-6.35,15.58-12.48,20.65l-.35.28c-11.57,10-18.76,20-18.76,26.19,0,1.11,1.69,2.37,3.16,2.37,6.87,0,18.53-10,26.24-16.61,1.67-1.43,3.27-2.79,4.74-4,10.32-25.85,34.59-45.72,49-45.72,9.91,0,16.58,5,16.58,12.37,0,16.28-28.29,40.15-37.51,47-.29,2.38-.23,5,1,6.42,1.58,1.93,5.42,2.33,8.36,2.33,9.26,0,19.21-8,28-15,2.54-2,4.94-4,7.25-5.63l.31-.22c5.93-14.44,16.81-29.77,28.09-39.3,4.77-4,8.6-4.34,13.5-4.34h.16c9.41.31,14.58,1.7,17.29,4.64a7.91,7.91,0,0,1,2,6v.13c0,2.87-1.33,6.07-3.73,9.72,4.56-3.73,9.37-7.45,14.38-11.1,6.59-4.81,28.71-20.51,36.47-20.51,3.56,0,6.52,2.71,8.81,8l0,.12a65.57,65.57,0,0,1,4.25,15.36l0,.15,3.58-5.86c7.09-11.56,11.37-18.54,18-23.06s14.93-5.9,27.33-6.47l2-2.88c6.57-9.56,14-20.39,29.61-20.39,9.9,0,13.43,5.16,13.43,10,0,3.86-2.42,8.15-5.8,12.86l14.6,1.17-3.27,6.61c-1,2-1.92,3.92-2.8,5.73-9.45,19.46-14.65,30.17-38.77,30.17-1.25,0-2.58,0-4-.08-13.77,18.22-21.33,33.73-21.33,43.83,0,4.21.79,4.21,2.9,4.21,3.55,0,8-2.19,17.34-8.61,1.45-3.17,4.15-5.8,6-7.66l.78-.77,55.79-51.15c1.49-11.72,9.4-19.73,19.79-19.73,8.48,0,14,2.38,15.24,14.21a93.27,93.27,0,0,0,2.17,11.36c1.41,6,2.86,12.27,2.86,19.71,0,17.56-10.08,31.39-21.91,41.58,6.49-2.44,12.44-6.93,19.35-12.15l.34-.26,21.73-16.66,5.28,20.05-2,2c-12.17,12.16-43.15,40.45-68,40.45h0c-.54,0-1.08,0-1.61,0-14-.63-32.38-7-41.81-22.62C1271.87,1335.26,1253.09,1348.8,1236.18,1348.8Zm-18.74-83.63c-2.57,3.94-6.61,8.13-11.2,12.91-8,8.34-18,18.7-18.21,27,2.53-.22,8.92-3.45,19.17-12l22.38-18.65.22,1.22a118.9,118.9,0,0,0,10.69-12.83l-1.34,0c-1.12,0-2-.07-2.84-.07-2.13,0-4.18.24-11,1.26Zm95.37,28.68c5,2.7,8.88,7,12,11.13,11.73-7.6,13.89-11.4,14.52-22.56-.49-3.42-1.07-7.32-1.79-11.78Z" transform="translate(-502.39 -639.32)"/><path class="cls-1" d="M1300.94,1202.71c3.42,0,8.42.79,8.42,5,0,4.73-7.63,13.42-10.26,17.11l16.32,1.31c-11.4,23-14.08,33.12-37.09,33.12q-2.94,0-6.34-.21c-9,11.58-24,33.17-24,49,0,5.79,1.84,9.21,7.9,9.21,5.32,0,11.07-3.16,21.48-10.39.77-3.06,4.28-6.17,6.15-8l57.12-52.39c.53-8.69,5.53-17.11,15-17.11,7.9,0,9.48,2.37,10.27,9.74,1,10,5,19,5,30.54,0,21.58-17.37,37.64-34.22,47.91a40.57,40.57,0,0,0,6.83.6c13,0,22.13-7,33.18-15.35l15.8-12.11,2.63,10c-15.72,15.71-43.53,39-64.45,39-.46,0-.91,0-1.36,0-16.26-.73-34.07-9.3-40.47-25.68-15.61,13.95-35.87,29.89-52.71,29.89-10.26,0-16.57-7.11-16.57-17.64,0-8.68,3.41-18.69,6.84-26.32l-.53-.53-10,8c-14.44,14.36-33.43,32.78-47.93,32.78-10,0-14.74-8.42-14.74-17.37,0-15.8,14.22-33.17,22.64-45.28l-.53-.52a209.44,209.44,0,0,0-40.53,40.27c-3.95,5-13.69,17.9-20.8,17.9-11.58,0-14.48-16.58-14.74-25.53q0-1.15,0-2.34c-12.63,14.27-32.67,32.61-50.27,32.61-15.53,0-22.64-17.9-22.64-31.33,0-1.23.06-2.45.15-3.68-13.21,13.31-35.95,33.17-48.31,33.17-11.06,0-17.9-10.27-17.9-20.27,0-17.9,13.69-31.85,24.21-44.49l-.52-.53-27.38,6.06c-9.21,14.48-20.27,21.32-31.59,32.64L924,1299.84a92.72,92.72,0,0,0,17.37-19.22c-5.52-.52-7.1-2.63-7.1-8.16,0-19,26.85-37.9,33.17-37.9a4.66,4.66,0,0,1,4.73,4.47,17.94,17.94,0,0,1-1.84,7.37c17.56-2.43,29.95-4.72,36.6-4.72,2.72,0,4.49.38,5.25,1.3,3.95,5,5.8,9.21,6.32,14,0,8.16-5,12.11-11.06,17.11-7.63,6.58-20.53,19.48-20.53,30,0,4.21,4.21,7.37,8.16,7.37,10.73,0,26.18-15.36,35.16-22.57,9.13-24.12,32.35-43.76,44.86-43.76,4.47,0,11.58,1.57,11.58,7.37,0,13.16-26.06,36.59-37.12,44.22-2.1,10.79,1.85,16.58,14,16.58,14,0,27.64-14,38.17-21.58l.42,1.79c5.28-15.4,17.12-32.12,28.27-41.54,3.42-2.9,5.79-3.16,10.27-3.16,15.79.53,14.47,4.21,14.47,5.79,0,10.27-33.16,36.85-33.16,43.17a2.93,2.93,0,0,0,2.89,2.9c1.84,0,4.21-2.37,5.27-3.69,21.06-26.85,69.49-59.23,77.12-59.23,1.06,0,2.63,1.32,4.22,5a61.53,61.53,0,0,1,4,14.21c0,10.27-32.38,30.27-32.38,48.44a4.88,4.88,0,0,0,4.73,4.73c6.32,0,17.9-9.21,22.64-13.16l15.8-13.16.38,2.1c9-8.36,16.93-17.51,23-27.9-8,0-10.8-.26-13.3-.26s-4.74.26-11.71,1.32l2.9-4.74c14.22-23.17,16.32-27.38,44.49-28.43,7.89-10.79,13.69-23.16,29-23.16m22.63,109c15.8-9.74,20-14.21,20.8-29.48-.79-5.53-1.85-12.63-3.42-21.58L1303,1296.15c9.74.53,15.53,8.69,20.53,15.53m-22.63-119c-18.22,0-26.82,12.5-33.73,22.56l-.58.84c-11.74.7-20.28,2.35-27.43,7.2-6.58,4.45-11,10.89-16.8,20.19-.49-1.47-1-3-1.66-4.5l0-.11,0-.12c-3.93-9.14-9.46-11.06-13.41-11.06-2.9,0-7,.83-17.33,6.84-6.44,3.74-14.29,8.94-22.09,14.63-.85.62-1.83,1.34-2.9,2.14a12.38,12.38,0,0,0-3.14-6.28c-3.75-4.08-9.78-5.9-20.8-6.26h-.33c-5.58,0-10.69.42-16.73,5.52-11.49,9.71-22.59,25.15-28.93,39.9-2.14,1.59-4.32,3.33-6.61,5.17-7.73,6.19-17.36,13.9-24.86,13.9a12.7,12.7,0,0,1-4.42-.56c0-.14,0-.32-.06-.57a176.89,176.89,0,0,0,20.54-18.66c11.51-12.33,17.11-22.47,17.11-31,0-10.23-8.88-17.37-21.58-17.37-17.83,0-42.59,22.41-53.19,47.67-1.23,1-2.51,2.12-3.84,3.26a163.94,163.94,0,0,1-13.93,11.09,36.73,36.73,0,0,1-6.32,3.57c1.95-4.45,7.16-11.28,16.08-19l.31-.25c6.37-5.26,14.3-11.8,14.3-24.5v-.55l-.06-.55c-.75-6.75-3.34-12.63-8.41-19l-.08-.1-.09-.1c-4.08-4.9-10.51-4.9-12.93-4.9-5.35,0-12.89,1.13-23.33,2.69l-2.11.31a14.73,14.73,0,0,0-14-10.12c-10.15,0-24.26,13.09-25.84,14.58-7.9,7.5-17.33,19.36-17.33,33.32a20.16,20.16,0,0,0,2.56,10.65,69.54,69.54,0,0,1-9.11,9l-4.16,3.36.48,5.32,1.06,11.59,1.93,21.25,15.09-15.09c3.34-3.33,6.77-6.36,10.09-9.29a172.58,172.58,0,0,0,13-12.27,49,49,0,0,0-4.84,20.81,32.55,32.55,0,0,0,7,20.18A26.48,26.48,0,0,0,978.25,1348c7.93,0,17.41-4.32,29.82-13.58,3.9-2.91,7.67-6,11.14-9a46,46,0,0,0,4.13,9c6,10,15.16,15.46,25.71,15.46,9.6,0,24.34-4.12,43.65-21.6.17.44.34.88.52,1.31,5.67,13.53,15.49,15.55,20.84,15.55,10.71,0,20.07-10.78,28-20.89l.64-.81,0,0,0,0c.17-.23.35-.45.52-.67v.07a30,30,0,0,0,5.64,18.07,23.33,23.33,0,0,0,19.1,9.3c13.45,0,27.36-9.82,41.6-22.83.49,15.67,11.28,26.52,26.56,26.52,16.92,0,34.92-11.87,50.2-24.52a50.76,50.76,0,0,0,14,12,62.87,62.87,0,0,0,28.53,8.33c.6,0,1.22,0,1.83,0,11.33,0,24.71-5.15,39.77-15.31a228.27,228.27,0,0,0,31.75-26.61l4.06-4.06-1.46-5.56-2.63-10-3.82-14.54-11.93,9.15-10,7.66a50.51,50.51,0,0,0,4.49-20.78c0-8-1.59-14.83-3-20.85a87.08,87.08,0,0,1-2.06-10.74c-.93-8.71-4.07-18.69-20.22-18.69a23.33,23.33,0,0,0-18.72,9.13,30.12,30.12,0,0,0-5.73,13.08l-54.43,49.92-.15.14-.15.15-.66.65a34.22,34.22,0,0,0-6.46,7.85c-4.34,3-8.45,5.53-11.31,6.54.61-8.61,7.32-22,18.74-37.51h1.52c12.76,0,21.51-2.85,28.37-9.25,6.16-5.74,10-13.68,14.9-23.74.87-1.8,1.79-3.7,2.78-5.69l6.54-13.22-13.81-1.11a19.37,19.37,0,0,0,2.25-8.53c0-7.47-5.69-15-18.42-15Zm-80.62,77.09,5.77-.88,2.82-.41-9.12,7.59L1204,1289.26c-1.55,1.29-3,2.43-4.29,3.44,3.22-4,7-7.94,10.13-11.15a129.14,129.14,0,0,0,10.48-11.75Zm100.43,23.46,13.31-12.48q.14,1,.27,1.86c-.44,7.54-1.4,10.55-8.51,15.65a46.36,46.36,0,0,0-5.07-5Z" transform="translate(-502.39 -639.32)"/></svg>